<?xml version="1.0" encoding="UTF-8" standalone="no"?>
<!-- Created with Inkscape (http://www.inkscape.org/) -->

<svg
   version="1.1"
   id="svg1"
   width="11929.342"
   height="1561.0735"
   viewBox="0 0 11929.342 1561.0735"
   sodipodi:docname="paperplane.svg"
   inkscape:version="1.4.3 (1:1.4.3+202512261035+0d15f75042)"
   xmlns:inkscape="http://www.inkscape.org/namespaces/inkscape"
   xmlns:sodipodi="http://sodipodi.sourceforge.net/DTD/sodipodi-0.dtd"
   xmlns="http://www.w3.org/2000/svg"
   xmlns:svg="http://www.w3.org/2000/svg">
  <defs
     id="defs1" />
  <sodipodi:namedview
     id="namedview1"
     pagecolor="#505050"
     bordercolor="#ffffff"
     borderopacity="1"
     inkscape:showpageshadow="0"
     inkscape:pageopacity="0"
     inkscape:pagecheckerboard="1"
     inkscape:deskcolor="#505050"
     inkscape:zoom="0.047531758"
     inkscape:cx="8636.3312"
     inkscape:cy="326.09777"
     inkscape:window-width="1420"
     inkscape:window-height="863"
     inkscape:window-x="0"
     inkscape:window-y="0"
     inkscape:window-maximized="0"
     inkscape:current-layer="group-R5">
    <inkscape:page
       x="0"
       y="0"
       inkscape:label="1"
       id="page1"
       width="11929.342"
       height="1561.0735"
       margin="0"
       bleed="0" />
  </sodipodi:namedview>
  <g
     id="g1"
     inkscape:groupmode="layer"
     inkscape:label="1"
     transform="translate(4876.584,-1084.2755)">
    <g
       id="group-R5"
       transform="rotate(18.569739,6879.0337,9389.0115)">
      <path
         id="path2"
         d="M -49558.38,-5931.7088 C -32214.227,7200.3018 -5856.74,8229.8 -3263.75,8077.7 -670.754,7925.6 1999.3786,8014.5514 4594.2486,8131.6514 7758.2986,8274.4514 10649,8853.3 13189.5,10712.1 c 756.6,553.5 1479.3,1150.8 2175.4,1776.1 348.2,312.7 689.7,632.5 1025.8,957.7 949.6,918.3 1783.9,1947.1 2743.6,2855.1 558.2,528.1 1176.7,993.1 1830.6,1400.9 591.1,368.6 1376.5,604.3 1798.4,1173.9 130.4,176 -43.1,324.1 -185.5,442.1 -293.1,243.1 -564.9,511 -811.6,799.5 -232.7,272.1 -499.2,579.4 -640.7,909.6 -90.9,212.3 78.9,357.8 277.4,423.5 757.6,250.6 -99.5,-918.3 -120.6,-984 -154.5,-480.3 -174.3,-968.1 -228.1,-1464.2 -35.6,-328.1 -232.2,-812.8 -596.3,-415.7 -239.4,261.2 -338.5,635.8 -480.1,950.9 -164.6,366.4 -483.7,872.5 -482.1,1282.2 1.7,425.3 526.6,796.7 854.3,988.4 2951.3,1726 5865.5,3534.7 8984.4,4977.7 466.1,215.7 935.8,423.6 1409.3,622.7 -2880.1,-2159.5 -5653.3,-4456.8 -8306.3,-6881 2136.5,-686.1 4273,-1372.3 6409.5,-2058.4 870.9,3581.7 2285.3,7035.3 4182,10211.4 -6152.3,-1571.8 -12148.9,-3731.2 -17878,-6437.8 263.6,124.6 1021.3,-166.9 1284.7,-251.8 444.9,-143.4 871.3,-341.8 1266.2,-588.8 803.9,-502.8 1417.7,-1093.9 1431.6,-2083.9"
         style="fill:none;stroke:#211d1d;stroke-width:160;stroke-linecap:round;stroke-linejoin:round;stroke-miterlimit:10;stroke-dasharray:none;stroke-opacity:1"
         transform="matrix(0.13333333,0,0,-0.13333333,0,5333.3333)"
         sodipodi:nodetypes="cscccccccccccccccccccccccscc" />
    </g>
  </g>
</svg>
